<?xml version="1.0" encoding="UTF-8" standalone="no"?>
<!-- Created with Inkscape (http://www.inkscape.org/) -->

<svg
   xmlns:dc="http://purl.org/dc/elements/1.1/"
   xmlns:cc="http://creativecommons.org/ns#"
   xmlns:rdf="http://www.w3.org/1999/02/22-rdf-syntax-ns#"
   xmlns:svg="http://www.w3.org/2000/svg"
   xmlns="http://www.w3.org/2000/svg"
   xmlns:sodipodi="http://sodipodi.sourceforge.net/DTD/sodipodi-0.dtd"
   xmlns:inkscape="http://www.inkscape.org/namespaces/inkscape"
   width="210mm"
   height="297mm"
   viewBox="0 0 210 297"
   version="1.1"
   id="svg8"
   inkscape:version="0.92.5 (2060ec1f9f, 2020-04-08)"
   sodipodi:docname="goj-karta.svg">
  <defs
     id="defs2" />
  <sodipodi:namedview
     id="base"
     pagecolor="#ffffff"
     bordercolor="#666666"
     borderopacity="1.0"
     inkscape:pageopacity="0.0"
     inkscape:pageshadow="2"
     inkscape:zoom="0.74386223"
     inkscape:cx="190.06591"
     inkscape:cy="403.20155"
     inkscape:document-units="mm"
     inkscape:current-layer="layer1"
     showgrid="false"
     inkscape:snap-global="false"
     inkscape:window-width="1920"
     inkscape:window-height="1023"
     inkscape:window-x="0"
     inkscape:window-y="0"
     inkscape:window-maximized="1" />
  <metadata
     id="metadata5">
    <rdf:RDF>
      <cc:Work
         rdf:about="">
        <dc:format>image/svg+xml</dc:format>
        <dc:type
           rdf:resource="http://purl.org/dc/dcmitype/StillImage" />
        <dc:title />
      </cc:Work>
    </rdf:RDF>
  </metadata>
  <g
     inkscape:label="Layer 1"
     inkscape:groupmode="layer"
     id="layer1"
     style="display:inline">
    <path
       inkscape:connector-curvature="0"
       id="path188"
       d="M 226.33214,169.24405 V 76.639884 h 73.025 73.025 v 92.604166 92.60417 h -73.025 -73.025 z"
       style="fill:#fbfbfd;stroke-width:0.35277778"
       inkscape:export-xdpi="109.98856"
       inkscape:export-ydpi="109.98856" />
  </g>
  <g
     inkscape:groupmode="layer"
     id="layer2"
     inkscape:label="walls"
     style="display:inline">
    <g
       id="g4794"
       transform="rotate(61.62689,110.36306,161.40931)"
       inkscape:export-xdpi="110.06363"
       inkscape:export-ydpi="110.06363">
      <circle
         style="stroke-width:0.26458332"
         r="2.4568453"
         cy="172.64583"
         cx="41.955357"
         id="path199" />
      <circle
         style="stroke-width:0.26458332"
         r="2.4568453"
         cy="199.86012"
         cx="47.058037"
         id="path199-3" />
      <circle
         style="stroke-width:0.26458332"
         r="2.4568453"
         cy="216.30208"
         cx="56.129463"
         id="path199-6" />
      <circle
         style="stroke-width:0.26458332"
         r="2.4568453"
         cy="218.38095"
         cx="67.846725"
         id="path199-7" />
      <circle
         style="stroke-width:0.26458332"
         r="2.4568453"
         cy="219.13692"
         cx="132.48065"
         id="path199-5" />
      <circle
         style="stroke-width:0.26458332"
         r="2.4568453"
         cy="183.98512"
         cx="152.13542"
         id="path199-35" />
      <circle
         style="stroke-width:0.26458332"
         r="2.4568453"
         cy="166.03125"
         cx="154.40327"
         id="path199-62" />
      <circle
         style="stroke-width:0.26458332"
         r="2.4568453"
         cy="151.29018"
         cx="152.89137"
         id="path199-9" />
      <circle
         style="stroke-width:0.26458332"
         r="2.4568453"
         cy="117.83929"
         cx="149.48958"
         id="path199-1" />
      <circle
         style="stroke-width:0.26458332"
         r="2.4568453"
         cy="99.696426"
         cx="137.39435"
         id="path199-2" />
      <circle
         style="stroke-width:0.26458332"
         r="2.4568453"
         cy="95.727676"
         cx="114.71577"
         id="path199-70" />
      <path
         inkscape:connector-curvature="0"
         id="path4780"
         d="m 41.766368,172.45684 5.480656,27.78125 9.260416,16.44197 11.528274,1.70089 64.822916,0.94494 19.65476,-35.52976 1.88988,-17.95387 -1.5119,-14.93006 -3.40179,-33.2619 -11.90625,-18.331848 -22.67857,-3.96875"
         style="fill:none;stroke:#000000;stroke-width:1.58749998;stroke-linecap:butt;stroke-linejoin:miter;stroke-miterlimit:4;stroke-dasharray:none;stroke-opacity:1" />
    </g>
  </g>
  <g
     inkscape:groupmode="layer"
     id="layer3"
     inkscape:label="buildings">
    <path
       style="fill:none;stroke:#000000;stroke-width:0.26458332px;stroke-linecap:butt;stroke-linejoin:miter;stroke-opacity:1"
       d="m 93.484782,120.32334 -6.323604,0.0803 0.404108,5.23913 6.209376,0.0825 z"
       id="path4797"
       inkscape:connector-curvature="0"
       inkscape:export-xdpi="110.06363"
       inkscape:export-ydpi="110.06363" />
    <path
       style="fill:none;stroke:#000000;stroke-width:0.26458332px;stroke-linecap:butt;stroke-linejoin:miter;stroke-opacity:1"
       d="m 76.153343,111.99795 c -0.566502,-0.30041 -3.930823,1.51663 -3.930823,1.51663 l 2.000275,5.38767 2.509958,-1.15348 z"
       id="path4799"
       inkscape:connector-curvature="0"
       inkscape:export-xdpi="110.06363"
       inkscape:export-ydpi="110.06363" />
    <path
       style="fill:none;stroke:#000000;stroke-width:0.26458332px;stroke-linecap:butt;stroke-linejoin:miter;stroke-opacity:1"
       d="m 70.211713,114.09528 1.372698,4.41282 -3.054676,-0.97783 -0.882781,-2.75722 z"
       id="path4801"
       inkscape:connector-curvature="0"
       inkscape:export-xdpi="110.06363"
       inkscape:export-ydpi="110.06363" />
    <path
       style="fill:none;stroke:#000000;stroke-width:0.26458332px;stroke-linecap:butt;stroke-linejoin:miter;stroke-opacity:1"
       d="m 63.926474,125.47383 5.694723,2.68491 -1.671099,2.51954 -5.326952,-2.37821 0.827607,-2.77143"
       id="path4803"
       inkscape:connector-curvature="0"
       inkscape:export-xdpi="110.06363"
       inkscape:export-ydpi="110.06363" />
    <path
       style="fill:none;stroke:#000000;stroke-width:0.26458332px;stroke-linecap:butt;stroke-linejoin:miter;stroke-opacity:1"
       d="m 60.827653,142.00369 1.364769,2.90116 -1.808757,3.20027 -3.617862,1.3476 -2.120771,-5.42366 z"
       id="path4805"
       inkscape:connector-curvature="0"
       inkscape:export-xdpi="110.06363"
       inkscape:export-ydpi="110.06363" />
    <path
       style="fill:none;stroke:#000000;stroke-width:0.26458332px;stroke-linecap:butt;stroke-linejoin:miter;stroke-opacity:1"
       d="m 65.804723,153.46439 1.100339,3.34716 -3.943375,1.11915 -2.211203,-0.72594 -0.707476,-2.24552 z"
       id="path4807"
       inkscape:connector-curvature="0"
       inkscape:export-xdpi="110.06363"
       inkscape:export-ydpi="110.06363" />
    <path
       style="fill:none;stroke:#000000;stroke-width:0.26458332px;stroke-linecap:butt;stroke-linejoin:miter;stroke-opacity:1"
       d="m 72.143246,165.2004 4.161289,4.52372 -2.190722,1.18319 -3.744991,-3.94006 z"
       id="path4809"
       inkscape:connector-curvature="0"
       inkscape:export-xdpi="110.06363"
       inkscape:export-ydpi="110.06363" />
    <path
       style="fill:none;stroke:#000000;stroke-width:0.26458332px;stroke-linecap:butt;stroke-linejoin:miter;stroke-opacity:1"
       d="m 83.242226,179.01421 0.08949,4.09524 -5.938682,-0.32977 0.434766,-3.87306 z"
       id="path4811"
       inkscape:connector-curvature="0"
       inkscape:export-xdpi="110.06363"
       inkscape:export-ydpi="110.06363" />
    <path
       style="fill:none;stroke:#000000;stroke-width:0.26458332px;stroke-linecap:butt;stroke-linejoin:miter;stroke-opacity:1"
       d="m 94.507859,181.72219 0.477375,1.25811 -2.799484,0.80453 -0.51963,-1.33634 z"
       id="path4813"
       inkscape:connector-curvature="0"
       inkscape:export-xdpi="110.06363"
       inkscape:export-ydpi="110.06363" />
    <path
       style="fill:none;stroke:#000000;stroke-width:0.26458332px;stroke-linecap:butt;stroke-linejoin:miter;stroke-opacity:1"
       d="m 99.88926,179.52317 0.38824,2.21582 -2.607012,0.59953 -0.92336,-1.52256 z"
       id="path4815"
       inkscape:connector-curvature="0"
       inkscape:export-xdpi="110.06363"
       inkscape:export-ydpi="110.06363" />
    <path
       style="fill:none;stroke:#000000;stroke-width:0.26458332px;stroke-linecap:butt;stroke-linejoin:miter;stroke-opacity:1"
       d="m 100.11179,184.05187 -3.184406,1.21456 0.846798,2.87771 1.776083,-0.45393 z"
       id="path4819"
       inkscape:connector-curvature="0"
       inkscape:export-xdpi="110.06363"
       inkscape:export-ydpi="110.06363" />
    <path
       style="fill:none;stroke:#000000;stroke-width:0.26458332px;stroke-linecap:butt;stroke-linejoin:miter;stroke-opacity:1"
       d="m 94.802358,186.00988 0.557267,2.52878 -1.522553,0.92336 -2.244224,-3.03255 z"
       id="path4821"
       inkscape:connector-curvature="0"
       inkscape:export-xdpi="110.06363"
       inkscape:export-ydpi="110.06363" />
    <path
       style="fill:none;stroke:#000000;stroke-width:0.26458332px;stroke-linecap:butt;stroke-linejoin:miter;stroke-opacity:1"
       d="m 109.90341,187.9602 4.12826,2.21711 -1.8619,4.03748 -4.30356,-2.72881 z"
       id="path4823"
       inkscape:connector-curvature="0"
       inkscape:export-xdpi="110.06363"
       inkscape:export-ydpi="110.06363" />
    <path
       style="fill:none;stroke:#000000;stroke-width:0.26458332px;stroke-linecap:butt;stroke-linejoin:miter;stroke-opacity:1"
       d="m 108.82615,179.04212 3.39901,1.80249 -1.29872,1.71205 -3.48352,-1.95896 z"
       id="path4825"
       inkscape:connector-curvature="0"
       inkscape:export-xdpi="110.06363"
       inkscape:export-ydpi="110.06363" />
    <path
       style="fill:none;stroke:#000000;stroke-width:0.26458332px;stroke-linecap:butt;stroke-linejoin:miter;stroke-opacity:1"
       d="m 113.88868,181.86634 3.89354,2.34389 -1.34725,1.43507 -3.81529,-2.38614 z"
       id="path4827"
       inkscape:connector-curvature="0"
       inkscape:export-xdpi="110.06363"
       inkscape:export-ydpi="110.06363" />
    <path
       style="fill:none;stroke:#000000;stroke-width:0.26458332px;stroke-linecap:butt;stroke-linejoin:miter;stroke-opacity:1"
       d="m 116.24677,179.68319 -0.23933,1.24096 2.56807,1.94807 c 0,0 1.02801,-1.46478 0.618,-1.84971 -0.41003,-0.38493 -2.94674,-1.33932 -2.94674,-1.33932 z"
       id="path4829"
       inkscape:connector-curvature="0"
       inkscape:export-xdpi="110.06363"
       inkscape:export-ydpi="110.06363" />
    <path
       style="fill:none;stroke:#000000;stroke-width:0.26458332px;stroke-linecap:butt;stroke-linejoin:miter;stroke-opacity:1"
       d="m 111.28592,176.29875 3.16429,1.92925 -0.86526,1.579 -3.399,-1.80247 z"
       id="path4831"
       inkscape:connector-curvature="0"
       inkscape:export-xdpi="110.06363"
       inkscape:export-ydpi="110.06363" />
    <path
       style="fill:none;stroke:#000000;stroke-width:0.26458332px;stroke-linecap:butt;stroke-linejoin:miter;stroke-opacity:1"
       d="m 127.17803,189.44403 -0.0561,3.26431 -4.37849,-0.0607 0.0138,-3.34255 z"
       id="path4833"
       inkscape:connector-curvature="0"
       inkscape:export-xdpi="110.06363"
       inkscape:export-ydpi="110.06363" />
    <path
       style="fill:none;stroke:#000000;stroke-width:0.26458332px;stroke-linecap:butt;stroke-linejoin:miter;stroke-opacity:1"
       d="m 126.76303,185.12034 -0.62261,2.9639 -2.04844,-0.61172 0.4724,-2.68064 z"
       id="path4835"
       inkscape:connector-curvature="0"
       inkscape:export-xdpi="110.06363"
       inkscape:export-ydpi="110.06363" />
    <path
       style="fill:none;stroke:#000000;stroke-width:0.26458332px;stroke-linecap:butt;stroke-linejoin:miter;stroke-opacity:1"
       d="m 141.3203,176.1464 c 0.24725,0.27071 2.54925,1.35185 2.64632,1.90581 0.097,0.55395 -3.5472,4.84662 -3.5472,4.84662 l -2.45255,-5.85083 z"
       id="path4837"
       inkscape:connector-curvature="0"
       inkscape:export-xdpi="110.06363"
       inkscape:export-ydpi="110.06363" />
    <path
       style="fill:none;stroke:#000000;stroke-width:0.26458332px;stroke-linecap:butt;stroke-linejoin:miter;stroke-opacity:1"
       d="m 74.128471,134.82003 5.067501,6.76297 -7.939894,3.07552 -3.477601,-6.81316 z"
       id="path4839"
       inkscape:connector-curvature="0"
       inkscape:export-xdpi="110.06363"
       inkscape:export-ydpi="110.06363" />
    <path
       style="fill:none;stroke:#000000;stroke-width:0.26458332px;stroke-linecap:butt;stroke-linejoin:miter;stroke-opacity:1"
       d="m 73.53557,137.46469 c 0.452282,0.46317 2.80446,3.13422 2.80446,3.13422 l -3.660129,1.26936 -1.648014,-3.05136 z"
       id="path4841"
       inkscape:connector-curvature="0"
       inkscape:export-xdpi="110.06363"
       inkscape:export-ydpi="110.06363" />
    <path
       style="fill:none;stroke:#000000;stroke-width:0.26458332px;stroke-linecap:butt;stroke-linejoin:miter;stroke-opacity:1"
       d="m 82.143279,129.07642 c 0.807501,0.37238 4.616525,2.55979 4.616525,2.55979 l -1.813371,4.31445 -5.23155,-3.13718 z"
       id="path4843"
       inkscape:connector-curvature="0"
       inkscape:export-xdpi="110.06363"
       inkscape:export-ydpi="110.06363" />
    <path
       style="fill:none;stroke:#000000;stroke-width:0.26458332px;stroke-linecap:butt;stroke-linejoin:miter;stroke-opacity:1"
       d="m 79.762831,146.93635 -2.082777,0.82171 c 0,0 1.045532,2.87145 1.400767,2.78065 0.355218,-0.0908 2.425446,-1.30997 2.425446,-1.30997 z"
       id="path4845"
       inkscape:connector-curvature="0"
       inkscape:export-xdpi="110.06363"
       inkscape:export-ydpi="110.06363" />
    <path
       style="fill:none;stroke:#000000;stroke-width:0.26458332px;stroke-linecap:butt;stroke-linejoin:miter;stroke-opacity:1"
       d="m 82.291965,151.43202 -3.082728,0.65433 0.422568,0.7824 3.329994,-0.38362 z"
       id="path4847"
       inkscape:connector-curvature="0"
       inkscape:export-xdpi="110.06363"
       inkscape:export-ydpi="110.06363" />
    <path
       style="fill:none;stroke:#000000;stroke-width:0.26458332px;stroke-linecap:butt;stroke-linejoin:miter;stroke-opacity:1"
       d="m 76.182605,149.47638 c 0.211283,0.3912 1.696565,3.32833 1.425843,3.57561 -0.270705,0.24727 -3.780614,1.23338 -3.780614,1.23338 l -0.691977,-4.27516 z"
       id="path4849"
       inkscape:connector-curvature="0"
       inkscape:export-xdpi="110.06363"
       inkscape:export-ydpi="110.06363" />
    <path
       style="fill:none;stroke:#000000;stroke-width:0.26458332px;stroke-linecap:butt;stroke-linejoin:miter;stroke-opacity:1"
       d="m 80.62751,159.20325 2.140882,2.27985 -2.129636,1.85764 -2.159722,-2.87606 z"
       id="path4851"
       inkscape:connector-curvature="0"
       inkscape:export-xdpi="110.06363"
       inkscape:export-ydpi="110.06363" />
    <path
       style="fill:none;stroke:#000000;stroke-width:0.26458332px;stroke-linecap:butt;stroke-linejoin:miter;stroke-opacity:1"
       d="m 85.677124,156.57705 -4.070137,0.88443 1.688611,1.81669 3.142149,-1.29279 z"
       id="path4853"
       inkscape:connector-curvature="0"
       inkscape:export-xdpi="110.06363"
       inkscape:export-ydpi="110.06363" />
    <path
       style="fill:none;stroke:#000000;stroke-width:0.26458332px;stroke-linecap:butt;stroke-linejoin:miter;stroke-opacity:1"
       d="m 86.109283,160.18403 c 0.211283,0.3912 -0.04522,2.34886 -0.04522,2.34886 l -1.737145,-2.09367 z"
       id="path4855"
       inkscape:connector-curvature="0"
       inkscape:export-xdpi="110.06363"
       inkscape:export-ydpi="110.06363" />
    <path
       style="fill:none;stroke:#000000;stroke-width:0.26458332px;stroke-linecap:butt;stroke-linejoin:miter;stroke-opacity:1"
       d="m 84.161212,162.7521 0.380312,0.70416 -1.846393,2.00785 -1.194079,-1.27528 z"
       id="path4857"
       inkscape:connector-curvature="0"
       inkscape:export-xdpi="110.06363"
       inkscape:export-ydpi="110.06363" />
    <path
       style="fill:none;stroke:#000000;stroke-width:0.26458332px;stroke-linecap:butt;stroke-linejoin:miter;stroke-opacity:1"
       d="m 88.771817,170.16609 -2.239251,0.90622 3.053385,4.71783 4.332915,-2.64335 -1.225446,-2.26896 -2.509962,1.15347 z"
       id="path4859"
       inkscape:connector-curvature="0"
       inkscape:export-xdpi="110.06363"
       inkscape:export-ydpi="110.06363" />
    <path
       style="fill:none;stroke:#000000;stroke-width:0.26458332px;stroke-linecap:butt;stroke-linejoin:miter;stroke-opacity:1"
       d="m 92.702156,139.64475 c 0.295798,0.54768 3.961243,8.27001 3.961243,8.27001 l -9.126035,3.3119 -3.339943,-7.49389 z"
       id="path4861"
       inkscape:connector-curvature="0"
       inkscape:export-xdpi="110.06363"
       inkscape:export-ydpi="110.06363" />
    <path
       style="fill:none;stroke:#000000;stroke-width:0.26458332px;stroke-linecap:butt;stroke-linejoin:miter;stroke-opacity:1"
       d="m 91.495882,143.02494 1.763898,4.20152 -4.425354,0.97522 -1.184853,-3.50363 z"
       id="path4863"
       inkscape:connector-curvature="0"
       inkscape:export-xdpi="110.06363"
       inkscape:export-ydpi="110.06363" />
    <path
       style="fill:none;stroke:#000000;stroke-width:0.26458332px;stroke-linecap:butt;stroke-linejoin:miter;stroke-opacity:1"
       d="m 98.518087,152.47151 4.954573,3.1857 -8.615634,6.87662 -3.223709,-1.29078 -0.03173,-6.04662 z"
       id="path4865"
       inkscape:connector-curvature="0"
       inkscape:export-xdpi="110.06363"
       inkscape:export-ydpi="110.06363" />
    <path
       style="fill:none;stroke:#000000;stroke-width:0.26458332px;stroke-linecap:butt;stroke-linejoin:miter;stroke-opacity:1"
       d="m 97.726462,155.12244 1.47105,1.22675 -3.170204,2.92494 -1.591552,-1.26272 0.20797,-2.23463 z"
       id="path4867"
       inkscape:connector-curvature="0"
       inkscape:export-xdpi="110.06363"
       inkscape:export-ydpi="110.06363" />
    <path
       style="fill:none;stroke:#000000;stroke-width:0.26458332px;stroke-linecap:butt;stroke-linejoin:miter;stroke-opacity:1"
       d="m 100.89652,128.24572 6.29426,5.29191 -8.415253,8.18326 -3.860872,-5.09022 0.487899,-4.71027 z"
       id="path4869"
       inkscape:connector-curvature="0"
       inkscape:export-xdpi="110.06363"
       inkscape:export-ydpi="110.06363" />
    <path
       style="fill:none;stroke:#000000;stroke-width:0.26458332px;stroke-linecap:butt;stroke-linejoin:miter;stroke-opacity:1"
       d="m 100.49148,131.79955 3.21282,2.20622 -3.59739,3.25674 -1.428805,-1.14851 -0.111261,-2.26435 z"
       id="path4871"
       inkscape:connector-curvature="0"
       inkscape:export-xdpi="110.06363"
       inkscape:export-ydpi="110.06363" />
    <path
       style="fill:none;stroke:#000000;stroke-width:0.26458332px;stroke-linecap:butt;stroke-linejoin:miter;stroke-opacity:1"
       d="m 112.07339,136.96433 1.21823,10.86319 -5.45171,3.75292 -6.87626,-3.56271 -1.015821,-3.19067 9.739051,-9.10036 z"
       id="path4873"
       inkscape:connector-curvature="0"
       inkscape:export-xdpi="110.06363"
       inkscape:export-ydpi="110.06363" />
    <path
       style="fill:none;stroke:#000000;stroke-width:0.26458332px;stroke-linecap:butt;stroke-linejoin:miter;stroke-opacity:1"
       d="m 108.52453,140.49804 1.16898,0.48033 0.40411,5.23913 -2.16101,0.86395 -1.89824,-0.89496 -0.90622,-2.23926 z"
       id="path4875"
       inkscape:connector-curvature="0"
       inkscape:export-xdpi="110.06363"
       inkscape:export-ydpi="110.06363" />
    <path
       style="fill:none;stroke:#000000;stroke-width:0.26458332px;stroke-linecap:butt;stroke-linejoin:miter;stroke-opacity:1"
       d="m 119.54361,153.04119 3.55289,9.198 -10.01177,2.98178 -2.81903,-9.89756 4.47685,-3.12534 z"
       id="path4877"
       inkscape:connector-curvature="0"
       inkscape:export-xdpi="110.06363"
       inkscape:export-ydpi="110.06363" />
    <path
       style="fill:none;stroke:#000000;stroke-width:0.26458332px;stroke-linecap:butt;stroke-linejoin:miter;stroke-opacity:1"
       d="m 118.33734,156.42138 0.8359,3.79316 -3.9919,0.84218 -1.19739,-3.90111 2.29867,-1.54469 z"
       id="path4879"
       inkscape:connector-curvature="0"
       inkscape:export-xdpi="110.06363"
       inkscape:export-ydpi="110.06363" />
    <path
       style="fill:none;stroke:#000000;stroke-width:0.26458332px;stroke-linecap:butt;stroke-linejoin:miter;stroke-opacity:1"
       d="m 106.49172,161.80847 1.25386,5.68974 -2.59908,2.11119 -3.81235,-4.81324 z"
       id="path4881"
       inkscape:connector-curvature="0"
       inkscape:export-xdpi="110.06363"
       inkscape:export-ydpi="110.06363" />
    <path
       style="fill:none;stroke:#000000;stroke-width:0.26458332px;stroke-linecap:butt;stroke-linejoin:miter;stroke-opacity:1"
       d="m 100.2279,166.3032 c 0.24724,0.27071 3.55881,4.3438 3.55881,4.3438 0,0 -3.59905,1.94382 -3.76808,1.63086 -0.169024,-0.31297 -1.981455,-4.79147 -1.981455,-4.79147 z"
       id="path4883"
       inkscape:connector-curvature="0"
       inkscape:export-xdpi="110.06363"
       inkscape:export-ydpi="110.06363" />
    <path
       style="fill:none;stroke:#000000;stroke-width:0.26458332px;stroke-linecap:butt;stroke-linejoin:miter;stroke-opacity:1"
       d="m 121.04084,170.2217 c -0.16903,-0.31296 -2.13924,-0.96693 -2.13924,-0.96693 l -4.22663,0.96895 -0.99664,2.45846 c 0,0 4.26758,2.84931 4.77301,2.47528 0.50543,-0.37402 2.5895,-4.93576 2.5895,-4.93576 z"
       id="path4885"
       inkscape:connector-curvature="0"
       inkscape:export-xdpi="110.06363"
       inkscape:export-ydpi="110.06363" />
    <path
       style="fill:none;stroke:#000000;stroke-width:0.26458332px;stroke-linecap:butt;stroke-linejoin:miter;stroke-opacity:1"
       d="m 123.37881,171.18236 2.41657,5.97134 -6.08888,-0.0465 z"
       id="path4887"
       inkscape:connector-curvature="0"
       inkscape:export-xdpi="110.06363"
       inkscape:export-ydpi="110.06363" />
    <path
       style="fill:none;stroke:#000000;stroke-width:0.26458332px;stroke-linecap:butt;stroke-linejoin:miter;stroke-opacity:1"
       d="m 135.39122,178.6412 3.39771,5.5425 c 0,0 -2.13593,1.65891 -2.38946,1.18949 -0.25354,-0.46945 -3.68095,-5.69271 -3.68095,-5.69271 z"
       id="path4889"
       inkscape:connector-curvature="0"
       inkscape:export-xdpi="110.06363"
       inkscape:export-ydpi="110.06363" />
    <path
       style="fill:none;stroke:#000000;stroke-width:0.26458332px;stroke-linecap:butt;stroke-linejoin:miter;stroke-opacity:1"
       d="m 136.86452,167.33498 -1.71501,1.12838 1.97352,3.27982 2.09994,-1.53841 z"
       id="path4891"
       inkscape:connector-curvature="0"
       inkscape:export-xdpi="110.06363"
       inkscape:export-ydpi="110.06363" />
    <path
       style="fill:none;stroke:#000000;stroke-width:0.26458332px;stroke-linecap:butt;stroke-linejoin:miter;stroke-opacity:1"
       d="m 134.18092,169.28968 1.43044,2.46144 -3.27982,1.97351 -1.84048,-2.84635 z"
       id="path4893"
       inkscape:connector-curvature="0"
       inkscape:export-xdpi="110.06363"
       inkscape:export-ydpi="110.06363" />
    <path
       style="fill:none;stroke:#000000;stroke-width:0.26458332px;stroke-linecap:butt;stroke-linejoin:miter;stroke-opacity:1"
       d="m 130.49534,164.71116 1.52124,2.81664 -2.99655,2.12373 -1.70282,-3.52708 z"
       id="path4895"
       inkscape:connector-curvature="0"
       inkscape:export-xdpi="110.06363"
       inkscape:export-ydpi="110.06363" />
    <path
       style="fill:none;stroke:#000000;stroke-width:0.26458332px;stroke-linecap:butt;stroke-linejoin:miter;stroke-opacity:1"
       d="m 132.86764,164.23839 c 0.687,0.3364 3.24714,0.77282 3.24714,0.77282 l -2.71958,2.07519 -1.20663,-1.67275 z"
       id="path4897"
       inkscape:connector-curvature="0"
       inkscape:export-xdpi="110.06363"
       inkscape:export-ydpi="110.06363" />
    <path
       style="fill:none;stroke:#000000;stroke-width:0.26458332px;stroke-linecap:butt;stroke-linejoin:miter;stroke-opacity:1"
       d="m 134.4535,151.45649 c 0.99535,1.28155 3.49311,4.78354 3.49311,4.78354 l -3.30158,3.80441 -3.82028,-6.3249 z"
       id="path4899"
       inkscape:connector-curvature="0"
       inkscape:export-xdpi="110.06363"
       inkscape:export-ydpi="110.06363" />
    <path
       style="fill:none;stroke:#000000;stroke-width:0.26458332px;stroke-linecap:butt;stroke-linejoin:miter;stroke-opacity:1"
       d="m 130.53854,155.99643 1.89526,3.32208 -4.11867,0.60746 -1.30367,-2.22671 z"
       id="path4901"
       inkscape:connector-curvature="0"
       inkscape:export-xdpi="110.06363"
       inkscape:export-ydpi="110.06363" />
    <path
       style="fill:none;stroke:#000000;stroke-width:0.26458332px;stroke-linecap:butt;stroke-linejoin:miter;stroke-opacity:1"
       d="m 127.4429,151.20035 c 0.41628,0.58367 1.7091,3.72582 1.7091,3.72582 l -2.45516,1.62919 -2.15048,-5.10442 z"
       id="path4903"
       inkscape:connector-curvature="0"
       inkscape:export-xdpi="110.06363"
       inkscape:export-ydpi="110.06363" />
    <path
       style="fill:none;stroke:#000000;stroke-width:0.26458332px;stroke-linecap:butt;stroke-linejoin:miter;stroke-opacity:1"
       d="m 132.28751,148.38169 -3.88856,1.59487 1.54468,2.29868 4.153,-2.04088 z"
       id="path4905"
       inkscape:connector-curvature="0"
       inkscape:export-xdpi="110.06363"
       inkscape:export-ydpi="110.06363" />
    <path
       style="fill:none;stroke:#000000;stroke-width:0.26458332px;stroke-linecap:butt;stroke-linejoin:miter;stroke-opacity:1"
       d="m 126.40885,133.56757 4.02232,8.94445 -8.43111,5.15996 -4.40985,-1.05441 -1.50776,-11.21212 z"
       id="path4907"
       inkscape:connector-curvature="0"
       inkscape:export-xdpi="110.06363"
       inkscape:export-ydpi="110.06363" />
    <path
       style="fill:none;stroke:#000000;stroke-width:0.26458332px;stroke-linecap:butt;stroke-linejoin:miter;stroke-opacity:1"
       d="m 124.30595,137.53308 c 0.24724,0.27071 1.49781,3.33461 1.49781,3.33461 l -2.5631,1.99069 -2.80114,-0.50839 -0.36646,-4.0467 z"
       id="path4909"
       inkscape:connector-curvature="0"
       inkscape:export-xdpi="110.06363"
       inkscape:export-ydpi="110.06363" />
    <path
       style="fill:none;stroke:#000000;stroke-width:0.26458332px;stroke-linecap:butt;stroke-linejoin:miter;stroke-opacity:1"
       d="m 144.84818,141.69884 -8.07293,2.64207 4.01606,8.74572 6.83991,-1.36974 1.5816,-6.61479 z"
       id="path4911"
       inkscape:connector-curvature="0"
       inkscape:export-xdpi="110.06363"
       inkscape:export-ydpi="110.06363" />
    <path
       style="fill:none;stroke:#000000;stroke-width:0.26458332px;stroke-linecap:butt;stroke-linejoin:miter;stroke-opacity:1"
       d="m 142.91894,144.86313 2.82623,1.30333 -0.82762,2.77143 -2.88399,0.64806 -1.48529,-2.93713 z"
       id="path4913"
       inkscape:connector-curvature="0"
       inkscape:export-xdpi="110.06363"
       inkscape:export-ydpi="110.06363" />
    <path
       style="fill:none;stroke:#000000;stroke-width:0.26458332px;stroke-linecap:butt;stroke-linejoin:miter;stroke-opacity:1"
       d="m 148.85075,158.84005 -0.42848,4.07181 -6.08888,-0.0465 -0.21626,-4.32995 z"
       id="path4915"
       inkscape:connector-curvature="0"
       inkscape:export-xdpi="110.06363"
       inkscape:export-ydpi="110.06363" />
    <path
       style="fill:none;stroke:#000000;stroke-width:0.26458332px;stroke-linecap:butt;stroke-linejoin:miter;stroke-opacity:1"
       d="m 148.46618,164.30302 -0.47369,6.42066 -5.27843,-2.10124 -0.10204,-4.49272 z"
       id="path4917"
       inkscape:connector-curvature="0"
       inkscape:export-xdpi="110.06363"
       inkscape:export-ydpi="110.06363" />
    <path
       style="fill:none;stroke:#000000;stroke-width:0.26458332px;stroke-linecap:butt;stroke-linejoin:miter;stroke-opacity:1"
       d="m 158.64071,161.43546 -5.05921,-0.19837 0.57313,5.55208 4.84793,-0.19281 z"
       id="path4919"
       inkscape:connector-curvature="0"
       inkscape:export-xdpi="110.06363"
       inkscape:export-ydpi="110.06363" />
    <path
       style="fill:none;stroke:#000000;stroke-width:0.26458332px;stroke-linecap:butt;stroke-linejoin:miter;stroke-opacity:1"
       d="m 161.20144,148.02599 0.92041,3.94964 -6.31105,0.47773 -0.32421,-3.96846 z"
       id="path4921"
       inkscape:connector-curvature="0"
       inkscape:export-xdpi="110.06363"
       inkscape:export-ydpi="110.06363" />
    <path
       style="fill:none;stroke:#000000;stroke-width:0.26458332px;stroke-linecap:butt;stroke-linejoin:miter;stroke-opacity:1"
       d="m 156.97374,133.83612 1.9534,6.42361 -3.91366,0.79993 -1.66388,-6.07467 z"
       id="path4923"
       inkscape:connector-curvature="0"
       inkscape:export-xdpi="110.06363"
       inkscape:export-ydpi="110.06363" />
  </g>
  <g
     inkscape:groupmode="layer"
     id="layer4"
     inkscape:label="coast">
    <path
       style="fill:none;stroke:#000000;stroke-width:0.26458332px;stroke-linecap:butt;stroke-linejoin:miter;stroke-opacity:1"
       d="m 69.126742,105.52932 c 3.71661,-2.73365 8.058718,-1.74637 11.350917,1.08694 2.544256,2.58037 5.909158,4.86113 9.706909,4.51148 12.444812,-3.07609 16.385582,-0.60554 22.939722,2.5724 2.79983,1.09094 6.11727,-0.19762 8.44164,2.144 2.85287,2.21841 5.57752,4.41351 8.72221,6.20892 7.16222,6.50758 8.36797,-0.0267 17.13904,0.88764 3.65503,-0.22677 7.06959,1.41759 10.3104,2.9061 2.59283,1.94138 4.58234,4.76626 7.51444,6.30273 1.78889,0.88617 3.68922,0.14357 5.06179,2.48305"
       id="path4928"
       inkscape:connector-curvature="0"
       sodipodi:nodetypes="cccccccccc"
       inkscape:export-xdpi="110.06363"
       inkscape:export-ydpi="110.06363" />
    <path
       style="fill:none;stroke:#000000;stroke-width:0.26458332px;stroke-linecap:butt;stroke-linejoin:miter;stroke-opacity:1"
       d="m 65.574782,105.30384 c -0.706632,1.12222 -4.175023,-0.88945 -3.698542,-0.27224 -1.819528,-1.07119 -3.630747,-0.90022 -5.48576,-1.91361 -1.704137,-0.57667 -3.519321,-0.53586 -5.157122,-1.09863 -1.807505,0.0902 -3.296365,0.78424 -5.099642,0.4096 -1.767793,-0.0516 -3.422873,0.29305 -5.177074,0.16342 -2.174735,-0.20068 -4.242,-0.52024 -6.124664,-1.55699 -1.955731,-0.0671 -4.012351,-1.043077 -5.684405,-1.783867 -2.099688,-0.4976 -4.007178,-0.65233 -6.114209,-1.28217 -2.255983,-0.17197 -3.550507,-1.00835 -5.438067,-1.05399 -2.139829,-0.59899 -4.336975,-0.64488 -6.457776,-1.37163 -2.1548582,0.13796 -4.1265152,-1.399872 -6.2022892,-2.053613"
       id="path4932"
       inkscape:connector-curvature="0"
       sodipodi:nodetypes="cccccccccccc"
       inkscape:export-xdpi="110.06363"
       inkscape:export-ydpi="110.06363" />
    <path
       style="fill:none;stroke:#000000;stroke-width:0.26458332px;stroke-linecap:butt;stroke-linejoin:miter;stroke-opacity:1"
       d="m 172.05992,134.69 c 1.81847,-1.15726 4.99976,0.88223 7.3607,1.45566 3.0031,0.66734 6.20585,1.30211 9.1843,2.18584 0.91317,1.4923 3.72083,1.98079 5.90688,3.52718 2.20934,1.09405 4.13586,2.63353 6.34947,3.28814 3.32107,1.18183 5.40716,4.22971 8.331,6.07814"
       id="path4935"
       inkscape:connector-curvature="0"
       sodipodi:nodetypes="cccccc"
       inkscape:export-xdpi="110.06363"
       inkscape:export-ydpi="110.06363" />
  </g>
  <g
     inkscape:groupmode="layer"
     id="layer5"
     inkscape:label="path">
    <path
       style="fill:none;stroke:#000000;stroke-width:0.26458332px;stroke-linecap:butt;stroke-linejoin:miter;stroke-opacity:1"
       d="m 84.883824,209.40536 c 0.185949,2.63582 -0.125635,5.87548 -0.249034,8.47374 -0.681441,2.85162 -0.830091,5.72312 -0.883636,8.63762 -0.182262,2.71777 0.288893,5.34699 0.387133,8.03716 -0.08125,5.4155 0.06874,10.8399 -0.07369,16.25338 -0.478705,2.66405 -0.688979,5.347 -0.780095,8.04736 -0.666394,4.92475 -0.358874,10.08245 -2.378407,14.74268 -1.359098,2.66841 -1.13967,12.49288 -1.618048,15.44317"
       id="path4939"
       inkscape:connector-curvature="0"
       sodipodi:nodetypes="cccccccc"
       inkscape:export-xdpi="110.06363"
       inkscape:export-ydpi="110.06363" />
    <path
       style="fill:none;stroke:#000000;stroke-width:0.26458332px;stroke-linecap:butt;stroke-linejoin:miter;stroke-opacity:1"
       d="m 87.740123,209.41614 c -0.200059,3.86666 -0.101547,7.2836 -0.370091,11.14523 -1.520132,5.26206 0.04936,8.9469 0.06468,13.01109 -0.604376,2.1811 0.139181,4.67287 -0.462753,6.85651 -0.205424,2.48586 -0.58608,6.27358 0.0029,8.69455 l -0.377265,8.50107 c -0.807653,2.75243 0.345617,4.49819 -1.065215,8.54731 -1.326357,3.14931 -0.695012,5.727 -1.9455,8.95325 -0.694928,5.34709 -1.183266,8.29306 -0.80477,13.78771"
       id="path4941"
       inkscape:connector-curvature="0"
       sodipodi:nodetypes="ccccccccc"
       inkscape:export-xdpi="110.06363"
       inkscape:export-ydpi="110.06363" />
  </g>
</svg>
